<svg xmlns="http://www.w3.org/2000/svg" width="24" height="24" fill="none">
  <path fill="#253017" d="M14.7907 22H9.2093C4.15814 22 2 19.8419 2 14.7907V9.2093C2 4.15814 4.15814 2 9.2093 2h5.5814C19.8419 2 22 4.15814 22 9.2093v5.5814C22 19.8419 19.8419 22 14.7907 22ZM9.2093 3.39535c-4.28837 0-5.81395 1.52558-5.81395 5.81395v5.5814c0 4.2884 1.52558 5.814 5.81395 5.814h5.5814c4.2884 0 5.814-1.5256 5.814-5.814V9.2093c0-4.28837-1.5256-5.81395-5.814-5.81395H9.2093Z"/>
  <path fill="#253017" d="M13.1719 15.9814c-.1767 0-.3534-.0651-.493-.2047L9.3952 12.493c-.26977-.2698-.26977-.7163 0-.986l3.2837-3.28377c.2698-.26977.7163-.26977.9861 0 .2697.26977.2697.71628 0 .98605L10.8743 12l2.7907 2.7907c.2697.2697.2697.7163 0 .986-.1303.1396-.307.2047-.4931.2047Z"/>
</svg>
