<svg xmlns="http://www.w3.org/2000/svg" width="24" height="24" fill="none">
  <path fill="#508826" d="M14.791 2c5.0508.00009 7.2089 2.15815 7.209 7.20898V14.791c-.0001 5.0508-2.1582 7.2089-7.209 7.209H9.20898C4.15815 21.9999 2.00009 19.8418 2 14.791V9.20898C2.00009 4.15816 4.15816 2.00009 9.20898 2H14.791Zm1.9893 6.62988c-.29-.29-.7706-.29-1.0606 0l-5.1396 5.13962-2.29983-2.2998c-.28999-.29-.77054-.29-1.06054 0-.29.29-.29.7706 0 1.0606l2.83007 2.8301c.14.1399.3303.2197.5303.2197.1999-.0001.3903-.0798.5303-.2197l5.6699-5.66997c.2899-.28996.2899-.77053 0-1.06055Z"/>
</svg>
