<svg xmlns="http://www.w3.org/2000/svg" width="24" height="24" fill="none">
  <path fill="#cccccc" stroke="#999999" d="M9.20898 2.5H14.791c2.468.00005 4.1098.5297 5.1445 1.56445C20.9703 5.09921 21.5 6.74098 21.5 9.20898V14.791c0 2.468-.5297 4.1098-1.5645 5.1445C18.9008 20.9703 17.259 21.5 14.791 21.5H9.20898c-2.468 0-4.10977-.5297-5.14453-1.5645C3.0297 18.9008 2.50005 17.259 2.5 14.791V9.20898c.00005-2.468.5297-4.10977 1.56445-5.14453C5.09921 3.0297 6.74098 2.50005 9.20898 2.5Zm0 .39551c-2.1793.00004-3.80539.38254-4.86816 1.44531-1.06277 1.06277-1.44527 2.68886-1.44531 4.86816V14.791c.00003 2.1793.38254 3.8054 1.44531 4.8682 1.06277 1.0627 2.68886 1.4453 4.86816 1.4453H14.791c2.1793 0 3.8054-.3826 4.8682-1.4453 1.0627-1.0628 1.4453-2.6889 1.4453-4.8682V9.20898c0-2.1793-.3826-3.80539-1.4453-4.86816-1.0628-1.06277-2.6889-1.44528-4.8682-1.44531H9.20898Z"/>
</svg>
