<svg xmlns="http://www.w3.org/2000/svg" width="24" height="24" fill="none">
  <path fill="#253017" d="M12 22C6.48372 22 2 17.5163 2 12 2 6.48372 6.48372 2 12 2c5.5163 0 10 4.48372 10 10 0 5.5163-4.4837 10-10 10Zm0-18.60465c-4.74419 0-8.60465 3.86046-8.60465 8.60465 0 4.7442 3.86046 8.6047 8.60465 8.6047 4.7442 0 8.6047-3.8605 8.6047-8.6047 0-4.74419-3.8605-8.60465-8.6047-8.60465Z"/>
  <path fill="#253017" d="M15.4515 15.6558c-.1209 0-.2419-.0279-.3535-.1023l-2.8837-1.7209c-.7163-.4279-1.2465-1.3675-1.2465-2.1954V7.82327c0-.3814.3163-.69767.6976-.69767.3814 0 .6977.31627.6977.69767v3.81393c0 .3349.2791.8279.5675.9954l2.8837 1.7209c.3349.1954.4372.6233.2418.9581-.1395.2233-.372.3442-.6046.3442Z"/>
</svg>
