<svg xmlns="http://www.w3.org/2000/svg" width="40" height="20" fill="none">
  <path fill="#253017" d="M26.7226 16.0917c0-.1461.0538-.2922.1692-.4076l5.0149-5.0149c.3692-.3692.3692-.96916 0-1.33836l-5.0149-5.0149c-.223-.22305-.223-.59225 0-.8153.2231-.22306.5923-.22306.8153 0l5.0149 5.0149c.8153.8153.8153 2.14596 0 2.96896l-5.0149 5.0149c-.223.223-.5922.223-.8153 0-.1077-.1154-.1692-.2615-.1692-.4077ZM6.72067 10c0-.5384.20767-1.07681.61533-1.48446l5.0149-5.0149c.2231-.22306.5922-.22306.8153 0 .2231.22305.2231.59225 0 .8153l-5.0149 5.0149c-.36919.3692-.36919.96916 0 1.33836l5.0149 5.0149c.2231.223.2231.5922 0 .8153-.2231.223-.5922.223-.8153 0L7.336 11.4845c-.40766-.4077-.61533-.9461-.61533-1.4845Z"/>
</svg>
