<svg xmlns="http://www.w3.org/2000/svg" width="24" height="24" fill="none">
  <path fill="#253017" d="M16.7438 8.28754 8.25847 16.7728c-.28991.2899-.77075.2899-1.06066 0-.28991-.2899-.28991-.7707 0-1.0606l8.48529-8.48532c.2899-.28991.7707-.28991 1.0607 0 .2899.28991.2899.77075 0 1.06066Z"/>
  <path fill="#253017" d="M16.7438 16.7728c-.29.2899-.7708.2899-1.0607 0L7.19781 8.28755c-.28991-.28992-.28991-.77075 0-1.06066.28991-.28992.77075-.28992 1.06066 0l8.48533 8.48531c.2899.2899.2899.7707 0 1.0606Z"/>
</svg>
