<svg xmlns="http://www.w3.org/2000/svg" width="375" height="298" fill="none">
  <path fill="#253017" d="M33.2632 246.337c-30.99845-2.218-29.71378-28.259-31.33321-52.995-3.54502-54.146-1.543754-102.4521.72744-156.1275C3.24034 23.4377 6.4502 11.6422 21.675 6.7448c5.4524-1.75339 11.2538-1.64876 16.9196-1.93431l17.1651-.72365L215.522.689588C231.948.590819 334.017.170318 346.282 6.5854c6.114 3.19776 10.103 8.8951 12.157 15.3678 2.016 14.0516 2.944 28.4288 4.073 42.5811 3.786 47.4857 5.165 95.2947 1.646 142.8367-1.15 15.537-4.686 29.484-23.551 31.941-11.522 1.501-26.801 1.946-38.538 2.475-5.261.237-10.787.136-16 .883-21.118.41-42.198 2.474-63.332 2.474v2.9l.019.267c1.494 18.254 37.615 45.817-2.224 47.736-19.732.952-40.669 1.859-60.404 1.951-34.525.161-24.604-11.026-17.896-34.101 1.395-4.797 2.243-9.506 3.182-14.394.15-.759.305-1.112.051-1.854-1.154-.657-20.614-.311-23.608-.341l-77.3708-.933c-3.7255-.057-7.5019-.236-11.223-.038Zm320.6708-41.754c.233-2.431.813-4.704 1.15-7.1-28.975 5.222-69.824 5.657-99.387 6.732l-91.156 3.141c-10.587.276-21.101.402-31.698.402l-43.5736-.003c-15.832-.003-31.6484-.008-47.4785-.355l-17.391-.391c-3.6826-.08-7.442-.332-11.1092.051.9841 10.684.9818 21.238 11.2682 27.176 6.0812 3.413 19.3199 1.986 26.2105 2.04l35.292.404c77.3906.991 154.5356-1.268 231.7756-6.224l14.408-.93c19.357-1.24 20.3-6.282 21.689-24.943Zm-141.972 43.461v-1.707c-11.417-1.025-28.016.296-39.671.625l-10.038.224c-3.596.066-5.953-1.182-6.379 2.317-1.767 9.253-3.942 18.57-7.196 27.418-.748 2.035-3.473 7.999-2.991 9.866 3.561 3.698 60.419-.306 67.943-.376 23.78-.223 16.347-1.1 8.155-14.279-4.607-7.413-7.955-15.562-9.823-24.088Zm6.171-236.7285c-9.585-.0058-19.233-.2092-28.813.0176L78.8525 14.0713c-12.1866.4254-24.3897.707-36.5674 1.2918-31.2995 1.5031-27.8788 6.2087-29.4703 31.8808l-1.9763 35.0062c-1.18771 25.5449-1.15393 51.2779-.4231 76.8369.3522 12.315 1.6309 24.61 1.9762 36.917 9.3642 1.407 19.8283.575 29.3388.882 7.2392.234 14.3828.442 21.6211.472l83.8515.125c3.954.022 7.877-.302 11.826-.402l30.282-.846c48.134-1.338 96.369-2.861 144.383-6.675 5.861-.466 15.329-.942 20.794-2.247l.165-.17-.157-.187.218-.095.035-.226-.28-.065-.024-.357.369-.155c2.749-50.298-.337-100.8859-5.186-150.9558-1.724-17.7999-3.284-19.8203-22.623-21.3849-35.399-2.8633-73.146-2.9132-108.872-2.4018Z"/>
  <path fill="#508826" d="M358.439 21.9514c3.477 1.3642 6.434 4.3077 7.915 7.7363 2.032 4.7037 4.006 37.8049 4.644 47.4187l1.576 27.4056c.681 12.484.856 24.977 1.114 37.472.399 19.225 1.949 77.539-3.368 90.82-6.303 15.747-18.943 15.259-32.591 15.251l-21.208-.014c-17.294-.009-34.653.348-51.939.001h-41.845v-2.9c21.134 0 42.214-2.064 63.332-2.474 5.213-.747 10.739-.646 16-.883 11.737-.529 27.016-.974 38.538-2.475 18.865-2.457 22.401-16.404 23.551-31.941 3.519-47.542 2.14-95.351-1.646-142.8365-1.129-14.1523-2.057-28.5295-4.073-42.5811Z"/>
  <path fill="#253017" d="M338.186 40.1208c-.008-2.4954.051-5.2219-.793-7.6007-4.06-11.4457-20.945-4.2825-24.928-6.3894-1.039-.549-1.443-1.6075-.688-2.5845 1.182-1.5311 7.444-1.2229 9.418-1.4585 9.703-.7063 18.48.956 20.572 11.9794.292 1.5438 1.244 10.1502.712 11.0864-2.3 4.0405-4.162-2.8889-4.293-5.0327ZM38.1073 189.296c-5.0562.672-11.7494 1.816-16.3814-.696-5.5946-3.035-4.4402-10.608-4.4957-15.87-.0235-2.225-1.2721-5.441 1.7412-6.052 3.7862.268.8651 12.069 2.5907 16.296 2.7474 6.731 13.7674 1.463 17.0194 2.894 2.1117.929 1.5001 2.988-.4742 3.428Z"/>
  <path fill="#ABD27A" d="M24.559 234.236c-.9817-4.857-5.9687-16.151-1.4011-20.286 1.3415-1.214 39.9359-.303 44.6117-.302l106.5154.002c18.067-.003 34.476-.453 52.455-1.174l73.977-3.029c13.534-.763 27.017-2.224 40.476-3.795 4.268-.499 8.428-1.274 12.742-1.069-1.39 18.661-2.332 23.703-21.69 24.943l-14.408.93c-77.24 4.956-154.385 7.215-231.7754 6.225l-35.292-.405c-6.8906-.054-20.1293 1.373-26.2106-2.04Zm187.403 13.809c-12.858 1.97-43.231 1.972-56.088 1.459.426-3.499 2.783-2.251 6.379-2.317l10.038-.224c11.655-.329 28.254-1.65 39.671-.625v1.707Zm-178.6988-1.709c3.7211-.199 7.4974-.02 11.223.038l77.3708.933c2.993.029 22.454-.317 23.608.34.254.742.099 1.095-.051 1.854-24.406.791-49.044.901-73.462.57-10.5976-.144-29.2998 2.019-38.6888-3.735Z"/>
  <path fill="#253017" d="M178.152 167.157c-.06 1.78.779 5.461-.289 6.836-.682.879-1.877.962-2.705.226-1.332-1.183-.979-12.298-.979-14.24-.001-3.932-1.109-6.858 3.973-7.105 3.556-1.562 10.344 1.924 9.336 7.148-.563 2.916-2.947 4.374-5.233 5.911 1.716 1.213 5.937 4.556 6.53 6.63-.765 2.865-2.69 1.7-4.351.398-1.986-2.017-4.098-4.006-6.282-5.804Zm.947-10.265h-.947c-.015 3.7-1.411 8.01 3.483 4.975 4.247-2.605 2.121-5.974-2.536-4.975Zm-32.251 15.193c2.239.06 5.428-.36 7.306-.196 1.222.106 1.792 2.03 1.003 2.885-1.494 1.619-9.844 1.449-11.584-.095-2.433-2.16-1.896-11.763-2.091-15.389-.202-3.768 1.459-6.242 5.366-6.413 2.316-.364 11.129.408 6.422 4.017-7.334.042-8.868-3.002-7.644 5.966 1.378-.114 5.963-.349 7 .428 1.086.814.668 2.688-.591 3.099-1.411.46-4.758.106-6.409.164-.014 1.475-.648 5.412 1.222 5.534Zm15.033-4.334c.04 1.319.813 6.427-.947 6.91-1.266.348-2.443-.07-2.693-1.455-.346-1.918-.792-17.512.109-18.74.79-1.076 2.506-1.374 3.743-1.59 4.973-.637 11.184 2.534 9.171 8.286-.908 2.596-3.169 3.67-5.478 4.772 1.514 2.658 4.936 4.079 5.956 7.028-.748 2.559-2.482 2.136-4.052.606-1.932-1.941-3.846-3.907-5.809-5.817Zm.737-10.857c-1.444.322-.744 4.6-.737 6.217 1.436-.211 2.631-.537 3.905-1.243 4.476-3.257.611-4.955-3.168-4.974Zm37.154 17.196c-5.733.185-10.53-4.322-10.711-10.063-.181-5.742 4.323-10.542 10.057-10.719 5.728-.177 10.516 4.327 10.697 10.064.18 5.736-4.315 10.533-10.043 10.718Zm-.793-16.729c-8.932 1.393-7.024 14.438 1.235 12.697 7.716-1.526 7.192-14.151-1.235-12.697Zm13.878 16.805c-.637-.31-1.195-.717-1.454-1.401-.286-.757.373-17.478.648-17.935.591-.982 2.09-1.131 3.102-1.298 8.227-.63 12.82 6.01 3.982 11.769 1.248 1.48 4.002 3.91 4.856 5.346.737 1.24-.448 4.717-3.867 1.435-1.229-1.391-2.815-3.196-4.251-4.347l-.72-.58c.107 2.911.902 5.868-2.296 7.011Zm2.7-16.807c.004 1.825-.09 3.678 0 5.498.954-.57 1.956-1.11 2.864-1.751 3.646-2.741-.114-3.917-2.864-3.747Zm-88.532-39.735c-.199-3.944.259-7.94-.064-11.857-1.876-1.304-26.532 4.935-34.7297.504-9.1181-4.928-.2075-14.7911 3.1367-20.3791l17.1-28.3408c3.874-6.41 8.555-15.5043 16.331-17.4228 9.935-1.169 8.109 9.1999 8.021 15.6132-.15 10.8496-1.735 28.2328-.007 38.6454 2.651-.0033 12.575-.3834 10.426 4.8469-.886 2.1592-8.145 3.5982-10.426 4.3692.249 6.802 3.29 28.6-2.525 33.451-2.178 1.817-4.929.126-6.274-1.884-2.773-4.144-1.953-12.789-.989-17.546Zm.746-69.0765c-4.985 3.8888-7.995 11.2098-10.96 16.6214-1.093 1.9968-18.7804 33.8324-18.7812 33.8381-.0593.3636.3112.4395.6224.512 9.7278-.3462 19.5768-1.8525 29.1188-3.7759-.845-7.6219 1.658-44.0092.271-47.0563l-.365-.0684.17-.0297-.076-.0412ZM258.054 104.53c-9.611 1.366-23.708 6.567-32.24 1.981-12.311-6.6157 5.096-26.4657 9.836-33.7322 4.798-7.3557 17.671-30.4028 26.134-32.6477 1.879.1138 4.048.6488 5.506 1.8987 6.388 5.4808.269 40.6059.974 52.3599 2.336-.7478 7.325-1.3018 8.591 1.5549 2.571 5.8024-5.478 6.0804-8.932 7.5094l-.363.152c-.101 6.265.513 28.7-3.032 32.038-3.246 3.056-7.129-.587-7.8-3.961-.825-4.156-.005-11.84.41-16.258.135-3.631.591-7.274.916-10.895Zm2.452-55.9798c-6.765 5.8709-31.469 48.6953-29.614 50.9337l.311.0379c7.062.7622 20.026-2.7989 27.894-3.7759.649-6.2055 2.925-45.4635 1.409-47.1957Zm-72.187 85.4418c-16.183 4.73-27.144-7.186-29.957-22.184-2.644-14.0974.066-50.0428 8.197-61.8174 3.268-4.7339 8.085-6.9763 13.611-7.9525 13.01-1.3793 23.871 6.4504 28.088 18.6694 4.826 13.9841 4.288 44.7425-2.203 58.0455-3.546 7.267-10.164 12.64-17.736 15.239Zm-5.502-83.4375c-14.435 1.9383-15.51 38.7782-15.6 49.439-.1 11.9655 2.746 30.1455 18.889 24.7115 19.932-7.708 17.838-49.3531 12.004-64.3174-2.285-5.8609-8.762-10.7713-15.293-9.8331Z"/>
</svg>
