<svg xmlns="http://www.w3.org/2000/svg" width="501" height="332" fill="none">
  <path fill="#253017" d="M96.1055 263.12c-30.9985-2.215-29.7138-28.218-31.3332-52.917-3.545-54.068-1.5438-102.302.7274-155.8987.5829-13.7566 3.7928-25.5347 19.0176-30.4249 5.4524-1.7508 11.2538-1.6463 16.9197-1.9315l17.165-.7226 159.763-3.3922c16.425-.0986 118.494-.5185 130.759 5.8871 6.115 3.1931 10.103 8.882 12.158 15.3453 2.015 14.0309 2.943 28.3869 4.072 42.5184C429.14 128.999 430.519 176.738 427 224.21c-1.15 15.514-4.686 29.441-23.55 31.895-11.523 1.498-26.802 1.943-38.538 2.471-5.262.236-10.788.136-16 .882-21.119.409-42.199 2.47-63.333 2.47v2.896l.019.266c1.494 18.228 37.615 45.75-2.224 47.666-19.732.951-40.669 1.857-60.404 1.949-34.524.16-24.603-11.01-17.895-34.052 1.394-4.79 2.243-9.491 3.181-14.373.151-.757.305-1.11.051-1.851-1.153-.656-20.614-.311-23.607-.34l-77.371-.931c-3.726-.058-7.5024-.237-11.2235-.038Zm320.6715-41.694c.232-2.426.812-4.697 1.149-7.089-28.974 5.214-69.824 5.649-99.387 6.722l-91.156 3.136c-10.587.276-21.1.402-31.698.402l-43.573-.003c-15.832-.003-31.649-.008-47.479-.355l-17.3908-.39c-3.6826-.08-7.442-.331-11.1092.051.9841 10.669.9818 21.207 11.2682 27.136 6.0812 3.408 19.3198 1.983 26.2108 2.037l35.292.404c77.39.989 154.535-1.267 231.775-6.215l14.408-.929c19.358-1.238 20.3-6.273 21.69-24.907Zm-141.973 43.398v-1.704c-11.417-1.024-28.016.294-39.671.624l-10.038.223c-3.596.066-5.953-1.18-6.379 2.313-1.766 9.24-3.942 18.544-7.196 27.379-.748 2.032-3.473 7.986-2.99 9.85 3.56 3.693 60.419-.304 67.942-.375 23.78-.222 16.348-1.098 8.155-14.258-4.607-7.402-7.955-15.539-9.823-24.052Zm6.171-236.3806c-9.585-.0059-19.232-.209-28.813.0176l-110.467 2.7341c-12.187.4248-24.39.706-36.568 1.2899-31.2992 1.5009-27.8785 6.1996-29.4699 31.8339l-1.9763 34.9547c-1.1877 25.5074-1.1539 51.2024-.4231 76.7244.3522 12.297 1.6309 24.574 1.9762 36.863 9.3642 1.404 19.8283.574 29.3391.88 7.239.234 14.382.442 21.621.471l83.851.125c3.954.023 7.877-.302 11.826-.401l30.283-.845c48.133-1.336 96.368-2.857 144.383-6.665 5.86-.465 15.329-.941 20.793-2.244l.165-.17-.157-.187.218-.094.035-.226-.28-.065-.023-.357.369-.154c2.749-50.224-.337-100.738-5.187-150.7339-1.724-17.7737-3.284-19.7911-22.623-21.3535-35.398-2.8591-73.145-2.9089-108.872-2.3982Z"/>
  <path fill="#508826" d="M421.282 39.0645c3.476 1.3621 6.433 4.3013 7.914 7.7248 2.032 4.6968 4.007 37.7494 4.644 47.3491l1.577 27.3656c.68 12.466.855 24.94 1.114 37.416.398 19.197 1.948 77.426-3.368 90.687-6.304 15.724-18.944 15.237-32.591 15.228l-21.209-.013c-17.294-.009-34.653.347-51.939.001H285.58v-2.896c21.133 0 42.213-2.061 63.332-2.47 5.213-.746 10.738-.646 16-.882 11.736-.528 27.015-.973 38.538-2.471 18.864-2.454 22.4-16.381 23.55-31.895 3.519-47.472 2.14-95.211-1.646-142.6261-1.129-14.1315-2.057-28.4875-4.072-42.5184Z"/>
  <path fill="#253017" d="M401.028 57.2054c-.007-2.4917.051-5.2143-.793-7.5896-4.059-11.4288-20.945-4.2762-24.928-6.3799-1.038-.5482-1.443-1.6052-.688-2.5807 1.182-1.5289 7.444-1.2211 9.418-1.4564 9.703-.7053 18.48.9546 20.572 11.9618.293 1.5415 1.245 10.1353.712 11.0701-2.3 4.0346-4.162-2.8847-4.293-5.0253Zm-150.81 96.5226c-19.549 3.225-28.657-11.353-30.288-28.867-1.839-19.752.738-61.3865 27.199-63.8371 5.461-1.3969 12.791 1.4929 17.152 4.7056 23.286 17.1605 17.017 83.6515-14.063 87.9985Zm-3.089-83.2016c-18.565 4.4186-19.538 47.7066-16.127 61.3776 2.476 9.922 9.529 13.249 19.216 11.822 24.017-8.814 25.934-75.974-3.089-73.1996Z"/>
  <path fill="#253017" d="m311.716 153.729-.659.011c-23.121.2-27.978-18.012-27.823-38.078.148-19.3145 5.397-54.9513 31.056-54.6376 38.296-.5692 37.774 88.4136-2.574 92.7046Zm1.126-82.5784c-17.369.8775-20.327 38.5004-19.601 50.6424.82 13.729 4.477 23.049 19.601 21.934 20.182-5.971 22.239-41.439 17.423-57.5573-1.83-6.1246-9.962-18.4468-17.423-15.0191ZM153.79 137.45c2.658.661 4.456 2.355 6.717 3.789 15.406 9.773 45.093.044 39.956-21.284-2.95-12.245-18.686-15.117-29.191-12.194-4.109 1.144-12.365 5.784-13.387-1.831-.74-5.516 1.162-38.2913 4.629-41.9137 2.516-2.6268 30.786-2.6849 35.606-2.9931 2.943-.048 9.217-.8904 11.531.9808 2.048 1.6562 2.108 5.153.426 7.0796-2.444 2.8002-34.485 2.862-39.962 3.376-1.629 8.3417-2.62 17.2878-2.54 25.7846 14.882-3.8493 35.446-.2344 41.352 16.0378 10.895 30.028-24.677 49.582-52.29 36.322-5.316-3.079-13.39-10.738-2.847-13.154Zm-52.84 68.711c-5.0566.671-11.7498 1.814-16.3818-.695-5.5946-3.03-4.4402-10.593-4.4957-15.847-.0235-2.222-1.2721-5.433 1.7412-6.043 3.7862.268.8651 12.052 2.5907 16.272 2.7473 6.721 13.7673 1.462 17.0196 2.89 2.111.928 1.5 2.984-.474 3.423Z"/>
  <path fill="#ABD27A" d="M87.4013 251.035c-.9817-4.85-5.9687-16.127-1.4011-20.256 1.3415-1.213 39.9358-.303 44.6118-.302l106.516.002c18.066-.003 34.475-.452 52.455-1.172l73.976-3.025c13.534-.761 27.018-2.22 40.477-3.789 4.267-.498 8.427-1.272 12.741-1.068-1.39 18.634-2.332 23.669-21.69 24.907l-14.408.929c-77.24 4.949-154.385 7.204-231.775 6.215l-35.292-.404c-6.891-.054-20.1294 1.371-26.2107-2.037Zm187.4027 13.789c-12.857 1.967-43.23 1.969-56.088 1.457.426-3.494 2.784-2.248 6.379-2.314l10.038-.223c11.656-.329 28.254-1.648 39.671-.624v1.704Zm-178.6985-1.706c3.7211-.198 7.4975-.019 11.2235.038l77.371.932c2.993.029 22.454-.316 23.607.34.254.741.1 1.093-.051 1.851-24.406.79-49.044.9-73.462.569-10.597-.143-29.299 2.016-38.6885-3.73Z"/>
  <path fill="#253017" d="M240.994 184.394c-.059 1.778.779 5.453-.289 6.826-.682.878-1.876.961-2.705.226-1.332-1.181-.978-12.28-.979-14.22-.001-3.926-1.109-6.847 3.973-7.093 3.556-1.561 10.345 1.921 9.336 7.136-.563 2.913-2.947 4.369-5.232 5.903 1.715 1.211 5.936 4.55 6.529 6.62-.765 2.861-2.69 1.697-4.351.397-1.986-2.013-4.097-3.999-6.282-5.795Zm.947-10.249h-.947c-.015 3.694-1.411 7.998 3.484 4.967 4.247-2.601 2.12-5.965-2.537-4.967Zm-32.251 15.169c2.239.06 5.428-.36 7.307-.196 1.222.106 1.791 2.028 1.002 2.881-1.494 1.617-9.844 1.447-11.583-.095-2.434-2.156-1.896-11.745-2.091-15.366-.203-3.762 1.458-6.233 5.365-6.404 2.316-.363 11.129.408 6.422 4.012-7.334.042-8.868-2.998-7.644 5.957 1.378-.114 5.963-.348 7 .427 1.087.813.668 2.684-.591 3.094-1.411.46-4.757.107-6.409.164-.014 1.473-.648 5.404 1.222 5.526Zm15.033-4.327c.041 1.317.813 6.417-.946 6.899-1.267.348-2.444-.069-2.694-1.452-.346-1.915-.791-17.487.109-18.713.79-1.074 2.506-1.372 3.743-1.588 4.973-.636 11.184 2.531 9.172 8.275-.909 2.591-3.17 3.664-5.478 4.764 1.513 2.655 4.935 4.073 5.955 7.018-.748 2.555-2.481 2.133-4.052.605-1.932-1.938-3.845-3.901-5.809-5.808Zm.737-10.842c-1.444.322-.744 4.594-.737 6.208 1.436-.211 2.631-.536 3.906-1.24 4.475-3.253.611-4.948-3.169-4.968Zm37.154 17.172c-5.733.184-10.529-4.316-10.71-10.049-.181-5.733 4.322-10.526 10.056-10.703 5.729-.177 10.517 4.321 10.697 10.049.181 5.728-4.315 10.518-10.043 10.703Zm-.793-16.705c-8.932 1.391-7.024 14.417 1.235 12.678 7.716-1.523 7.192-14.13-1.235-12.678Zm13.878 16.781c-.637-.309-1.195-.715-1.454-1.399-.286-.755.374-17.452.648-17.907.592-.982 2.09-1.131 3.102-1.297 8.228-.629 12.821 6.001 3.982 11.752 1.249 1.477 4.003 3.903 4.856 5.338.737 1.238-.448 4.71-3.867 1.433-1.228-1.389-2.815-3.191-4.25-4.341l-.721-.579c.108 2.906.903 5.859-2.296 7Zm2.7-16.781c.004 1.822-.09 3.672 0 5.489.955-.569 1.956-1.108 2.864-1.748 3.646-2.737-.113-3.912-2.864-3.741Z"/>
</svg>
