<svg xmlns="http://www.w3.org/2000/svg" width="24" height="24" fill="none">
  <path fill="#253017" d="M11.9999 16.33c-2.38998 0-4.32998-1.94-4.32998-4.33 0-2.38999 1.94-4.32999 4.32998-4.32999 2.39 0 4.33 1.94 4.33 4.32999 0 2.39-1.94 4.33-4.33 4.33Zm0-7.15999c-1.56 0-2.82998 1.26999-2.82998 2.82999s1.26998 2.83 2.82998 2.83c1.56 0 2.83-1.27 2.83-2.83s-1.27-2.82999-2.83-2.82999Z"/>
  <path fill="#253017" d="M12.0001 21.02c-3.76002 0-7.31002-2.2-9.75002-6.02-1.06-1.65-1.06-4.34 0-5.99999 2.45-3.82 6-6.02 9.75002-6.02 3.75 0 7.3 2.2 9.74 6.02 1.06 1.64999 1.06 4.33999 0 5.99999-2.44 3.82-5.99 6.02-9.74 6.02Zm0-16.53999c-3.23002 0-6.32002 1.94-8.48002 5.33-.75 1.16999-.75 3.20999 0 4.37999 2.16 3.39 5.25 5.33 8.48002 5.33 3.23 0 6.32-1.94 8.48-5.33.75-1.17.75-3.21 0-4.37999-2.16-3.39-5.25-5.33-8.48-5.33Z"/>
</svg>
