<svg xmlns="http://www.w3.org/2000/svg" width="24" height="24" fill="none">
  <path fill="#253017" d="M11.4235 18.4186c-.307 0-.614-.0744-.8931-.2326-.5674-.3163-.91159-.893-.91159-1.5442v-2.8651c0-.1767-.13954-.5209-.27907-.6976l-2.01861-2.121c-.38139-.3814-.66976-1.05114-.66976-1.56277V8.15812c0-1.03256.78139-1.83256 1.77674-1.83256H15.563c.9767 0 1.7767.8 1.7767 1.77675V9.293c0 .65117-.3721 1.3674-.7441 1.7395l-2.3535 2.0838c-.1489.1302-.307.4558-.307.7255v2.3256c0 .5861-.3535 1.2372-.8279 1.5163l-.7349.4744c-.2884.1768-.614.2605-.9488.2605ZM8.42811 7.72091c-.22325 0-.38139.18605-.38139.43721v1.23721c0 .12093.13023.43721.27907.58605l2.06511 2.17672c.3163.4.6233 1.0419.6233 1.6186v2.8651c0 .1861.1209.2884.1953.3256.1023.0558.2698.093.4186 0l.7442-.4837c.0744-.0558.1674-.2419.1674-.3349v-2.3256c0-.6604.3256-1.3953.7907-1.7767l2.307-2.04652c.1209-.12093.307-.49302.307-.72558V8.10231c0-.20466-.1768-.3814-.3814-.3814H8.42811Z"/>
  <path fill="#253017" d="M14.7907 22H9.2093C4.15814 22 2 19.8419 2 14.7907V9.2093C2 4.15814 4.15814 2 9.2093 2h5.5814C19.8419 2 22 4.15814 22 9.2093v5.5814C22 19.8419 19.8419 22 14.7907 22ZM9.2093 3.39535c-4.28837 0-5.81395 1.52558-5.81395 5.81395v5.5814c0 4.2884 1.52558 5.814 5.81395 5.814h5.5814c4.2884 0 5.814-1.5256 5.814-5.814V9.2093c0-4.28837-1.5256-5.81395-5.814-5.81395H9.2093Z"/>
</svg>
