<svg xmlns="http://www.w3.org/2000/svg" width="24" height="24" fill="none">
  <path fill="#253017" d="M17.386 22H6.61395C4.06512 22 2 19.9233 2 17.3717v-6.9006c0-1.26646.7814-2.85889 1.78605-3.64114L8.8 2.91871c1.507-1.17337 3.9163-1.22925 5.4791-.13037l5.7488 4.0323C21.1349 7.59358 22 9.2512 22 10.6015v6.7795C22 19.9233 19.9349 22 17.386 22ZM9.65581 4.01758 4.64186 7.92883c-.66046.5215-1.24651 1.70419-1.24651 2.54227v6.9006c0 1.7787 1.44186 3.2314 3.2186 3.2314H17.386c1.7768 0 3.2187-1.4434 3.2187-3.2221v-6.7795c0-.89398-.6419-2.13255-1.3768-2.63542l-5.7488-4.03231c-1.0605-.745-2.8093-.70775-3.82329.08381Z"/>
  <path fill="#253017" d="M12 18.75c-.41 0-.75-.34-.75-.75v-3c0-.41.34-.75.75-.75s.75.34.75.75v3c0 .41-.34.75-.75.75Z"/>
</svg>
