<svg xmlns="http://www.w3.org/2000/svg" width="24" height="24" fill="none">
  <path stroke="#253017" stroke-linecap="round" stroke-linejoin="round" stroke-width="1.5" d="M6.09 14.999c-.38934-.88-.59031-1.8317-.59-2.794 0-3.70501 2.91-6.70601 6.5-6.70601s6.5 3.002 6.5 6.70601c.0003.9623-.2007 1.914-.59 2.794M12 1.99899v1M22 11.999h-1m-18 0H2m17.07-7.07101-.707.707m-12.726.001-.707-.707M14.517 19.306c1.01-.327 1.416-1.252 1.53-2.182.034-.278-.195-.509-.475-.509H8.477c-.06838-.0011-.1362.0123-.199.0394-.06279.0271-.11912.0672-.16525.1177-.04613.0505-.08102.1102-.10235.1752-.02134.0649-.02863.1337-.0214.2017.112.928.394 1.606 1.464 2.156m5.064.001-5.064-.001m5.064.001c-.121 1.945-.683 2.715-2.51 2.693-1.954.036-2.404-.917-2.554-2.694"/>
</svg>
