<svg xmlns="http://www.w3.org/2000/svg" width="300" height="300" fill="none">
  <path fill="#253017" d="M147.803 29.8532c.029-.0261.057-.0525.086-.0783l.145-.1278c2.465-2.211 4.863-1.2726 5.288 1.8326-.117 3.6668.907 14.6932-1.168 17.0938-6.075 3.0025-4.361-7.1476-4.356-10.1863.005-2.8236-.177-5.7235.005-8.534Z"/>
  <path fill="#ABD27A" d="M153.322 31.4797c6.565-.6753 6.003 3.454 5.83 8.7517-.099 3.0165-.041 6.76-2.205 9.1684-1.482 1.6486-3.83 1.1135-4.792-.8263 2.074-2.4006 1.05-13.427 1.167-17.0938Z"/>
  <path fill="#253017" d="M182.096 57.2079c-9.055 1.8557 2.602-14.7859 3.755-16.478 1.561-2.2909 3.708-1.7803 5.011.3693.107 3.0616-6.682 14.104-8.766 16.1087Zm-61.484-.8678c-.989.7375-1.946 1.5785-3.28 1.3176-1.778-.3479-6.879-11.2802-7.771-13.9313-.792-2.3548 2.687-7.1403 6.153-.0321 1.139 2.7378 6.02 10.3424 4.898 12.6458Z"/>
  <path fill="#ABD27A" d="M190.862 41.0994c8.854.4676-3.023 17.8882-3.943 18.5667-2.238 1.65-4.438-.1735-4.823-2.458 2.084-2.0047 8.873-13.0472 8.766-16.1087Zm-75.148 2.5947c3.576-.7331 7.383 8.9405 7.604 10.6183.206 1.5676-1.496 1.9874-2.706 2.0275 1.122-2.3033-3.759-9.908-4.898-12.6458Zm102.787 17.9255c-1.619.6616-10.895 7.9242-11.625 9.5133-.991 2.158 1.276 4.5293 3.413 3.4875 1.896-.9246 9.924-7.8978 11.348-9.5777 5.227 5.9988-8.933 19.3693-16.466 13.7566-9.706-7.231 4.436-24.0661 13.33-17.1797Zm-135.8814.7066c5.0104-2.9443 17.4224 8.5787 10.9658 11.1205.426-3.7693-7.9933-9.2947-10.9658-11.1205Z"/>
  <path fill="#253017" d="M221.637 65.0427c-1.424 1.6799-9.451 8.6531-11.348 9.5777-2.137 1.0418-4.403-1.3295-3.413-3.4875.73-1.5891 10.006-8.8517 11.625-9.5133 2.199.2602 3.167 1.1649 3.136 3.4231ZM93.5852 73.4468c-.4611 1.0992-1.5978 1.9992-2.8453 1.7115-.9966-.2297-11.3091-8.1791-11.6759-8.973-1.2153-2.628.9363-5.0737 3.5554-3.859 2.9725 1.8258 11.3918 7.3512 10.9658 11.1205ZM121.113 215.204c-1.352-3.159-1.33-6.637-2.069-9.951-3.151-14.129-9.838-21.889-18.478-32.786-9.5002-11.982-15.6983-26.761-16.3059-42.148-1.4502-36.7232 25.7879-66.6154 62.6739-67.9929 48.612-2.0115 82.922 47.1519 64.331 91.8319-8.191 19.687-26.469 29.189-29.904 51.987-.464 3.08-.545 6.057-1.5 9.059 3.166 3.832 3.38 7.924 1.595 12.524 1.823 4.729 2.576 7.673-1.134 12.056 3.049 9.127-8.127 15.318-15.309 17.09-1.266 6.979-5.657 9.559-11.398 12.213-9.106.514-15.952-3.088-18.643-12.213-6.76-3.621-16.882-4.93-14.36-15.8-2.56-3.843-3.993-7.952-1.452-12.313-2.65-4.796-2.513-9.882 1.953-13.557Zm70.602-47.61c11.671-13.759 16.704-27.356 15.239-45.423-2.519-31.0602-33.511-56.2578-64.303-53.6633-32.995 2.7803-55.5092 32.0553-52.5696 64.5473 2.9127 32.185 26.3456 41.352 34.0106 69.611.679 2.504.701 6.079 2.79 7.836 3.979 3.348 9.996 4.852 15.068 5.398-.776-9.981-.521-24.325-2.255-33.631.274-8.757-1.883-21.226-3.234-29.857-.468-2.993-1.806-6.28-1.489-9.302-1.969.02-3.99.114-5.954-.024-24.318-1.696-24.799-27.534-9.512-27.309 11.47.169 16.155 12.375 18.739 21.595 2.506-.923 4.989-1.876 7.397-3.032-13.583-28.84 28.015-26.58 7.68.905 3.223 3.906 9.167 6.915 14.074 7.865 2.666-5.519 5.351-11.987 11.584-14.2 14.702-5.222 19.211 19.416-7.915 19.734-2.786 7.91-10.358 30.658-10.035 38.842-1.322 10.845-.516 18.081 0 28.414 3.891-1.021 7.514-1.874 11.027-3.945.345-7.367 1.584-14.598 4.07-21.547 2.541-5.443 5.698-10.522 9.436-15.229 1.666-2.098 5.087-5.425 6.152-7.585Zm-52.02-25.472c.52 3.707 1.531 7.356 2.186 11.045 1.511 8.508 3.32 22.44 3.187 30.915 1.644 9.148 1.59 22.387 2.499 32.275h8.241c-.781-9.439-1.831-20.114 0-29.517 1.019-13.426 5.717-25.914 9.727-38.611-7.078-1.695-11.65-5.073-16.968-9.842-2.833 1.747-5.728 2.697-8.872 3.735Zm18.098 82.952c-12.454-.43-20.107.447-32.099-6.216-7.794 4.525.251 7.675 2.754 9.523 4.58 3.383 19.326 1.85 25.167 2.288 4.014.161 29.422-2.333 22.512-11.367-3.484 1.78-6.782 3.184-10.592 4.104-2.405.581-5.585.475-7.742 1.668Zm0 10.343c-7.403.585-23.433-1.808-29.168-6.656-9.672 4.014-5.461 8.095 1.706 10.701-1.678.644-3.438 1.477-4.189 3.24-3.133 7.36 17.673 10.044 21.661 9.961 1.767.391 3.734.174 5.519 0 6.673.147 19.956-1.875 21.857-9.904-5.823 2.051-11.198 3.407-17.386 3.88-7.315.144-13.973-1.01-20.919-3.269-.833-.272-5.329-1.69-5.675-2.137 7.385 1.54 15.093-.523 20.955.61 6.419-.563 27.299-.87 24.807-10.919-6.081 2.715-12.48 4.382-19.168 4.493Zm-6.922-116.772c-3.611 1.858-2.897 6.588-2.09 9.837.147.591.522 3.541 1.439 2.118 1.586-2.476 7.022-11.83.651-11.955Zm-32.199 2.383c-3.449.697-5.27 3.533-4.399 6.982 1.75 6.93 8.906 8.194 14.352 10.151 1.503-.013 3.005-.026 4.508 0-1.567-6.6-6.033-17.728-14.461-17.133Zm63.424 12.434c-4.539 1.238-7.037 5.531-8.625 9.648 1.203-.086 2.322-.178 3.49-.488 2.9-.894 6.896-2.28 8.395-5.188 1.327-2.575-.983-4.091-3.26-3.972Zm-41.179 124.017c2.606 6.154 10.598 8.258 15.776 3.807.96-.997 1.727-2.014 2.407-3.22-7.756.697-10.708.133-18.183-.587Z"/>
  <path fill="#ABD27A" d="M139.695 182.269c-1.897-.396-3.551-1.56-5.297-2.349-10.025-4.529-20.837-11.04-26.57-20.762-15.1221-25.645-2.993-56.948 21.652-71.3219 23.288-13.5826 53.917-7.599 67.641 16.3109 12.28 21.398 6.81 45.305-11.288 61.236-1.619 1.426-3.38 2.678-5.014 4.083-11.362 9.771-16.369 21.789-16.478 36.397-.007 1.013.326 2.011-.409 2.789l-.3-.001c-2.343-2.408-1.077-17.12.082-20.65-.895-.167-1.793-.327-2.684-.515-.323-8.184 7.249-30.932 10.035-38.842 27.126-.318 22.617-24.956 7.915-19.734-6.233 2.213-8.918 8.681-11.584 14.201-4.907-.951-10.851-3.96-14.074-7.866 20.335-27.485-21.263-29.745-7.68-.905-2.408 1.156-4.891 2.109-7.396 3.032-2.584-9.22-7.27-21.426-18.74-21.595-15.286-.225-14.806 25.613 9.512 27.309 1.964.138 3.985.044 5.954.025-.317 3.021 1.021 6.308 1.489 9.301 1.351 8.631 3.508 21.1 3.234 29.857Zm24.653-93.4614c-2.43 1.1262-4.607 4.3277-3.27 7.0031 1.623 3.2461 15.684 4.0676 23.163 15.8243 2.403 3.778 3.107 6.932 8.352 5.638 2.007-1.21 3.196-2.39 3.894-4.676-4.237-10.973-19.488-24.7779-32.139-23.7894Zm31.972 31.6134c-2.604.434-4.355 2.906-3.9 5.506.455 2.6 2.941 4.331 5.537 3.855 2.567-.47 4.274-2.922 3.824-5.492-.449-2.571-2.887-4.298-5.461-3.869Zm-.524 12.154c-1.408.96-1.616 6.692-2.321 8.786-1.226 3.636-6.142 9.13-.882 9.939 1.781-2.1 9.933-19.135 3.203-18.725Zm-7.404 18.725c-.676.476-1.248.974-1.719 1.661-.396 2.863-.03 4.138 3.083 4.091 3.073-1.115 1.743-5.759-1.364-5.752Zm38.397-48.835c-5.256 3.49-10.829-2.452-5.714-7.3684 3.852-3.7014 14.035-6.8028 18.405-2.2096-1.47.8033-21.273 5.2869-12.691 9.578ZM60.6077 93.4505c7.7226-3.4605 24.597 5.8418 14.8968 8.5185.2971-1.477.2438-2.655-1.18-3.4454-2.8108-1.5604-10.4854-4.0149-13.7168-5.0731Z"/>
  <path fill="#253017" d="M239.48 92.887c2.996.9451 4.164 4.2515.761 5.7492-2.165.9527-11.459 4.4758-13.452 3.8288-8.582-4.2911 11.221-8.7747 12.691-9.578ZM58.1694 97.9952c-1.2937-2.3795-.1877-4.2937 2.4383-4.5445 3.2315 1.0582 10.9061 3.5127 13.7168 5.073 1.4239.7905 1.4772 1.9683 1.1801 3.4463-.7746.778-1.3459 1.098-2.4129 1.367-3.1101-.794-12.5121-3.8576-14.9223-5.3418Z"/>
  <path fill="#ABD27A" d="M150.22 130.6c-.917 1.423-1.292-1.527-1.439-2.118-.807-3.249-1.522-7.979 2.09-9.837 6.371.125.935 9.479-.651 11.955Zm-21.595 7.561c-5.446-1.957-12.602-3.221-14.352-10.151-.871-3.448.95-6.285 4.399-6.982 8.428-.595 12.894 10.533 14.461 17.133-1.503-.026-3.004-.013-4.508 0Zm98.164-5.586c-4.017-8.538 14.123-7.04 18.374-.883-3.868-.635-11.129-1.809-15.013-1.771-2.23.022-2.644.65-3.361 2.654Zm-153.6975-.883c-2.2623-2.576-3.9955-1.791-7.1268-1.438-3.6146.408-7.2076 1.027-10.8128 1.438 4.6054-4.678 18.9855-7.221 17.9396 0Z"/>
  <path fill="#253017" d="M55.152 131.692c3.6053-.412 7.1983-1.03 10.8129-1.438 3.1313-.353 4.8645-1.138 7.1268 1.438-.3803 1.023-.8361 2.503-1.9277 2.983-1.5727.694-14.6413 2.496-16.1047 1.828-2.327-1.063-2.0422-3.842.0927-4.811Zm190.011 0c3.122.948 2.368 3.885 0 5.116-3.569.093-7.36-.664-10.913-1.096-2.661-.324-6.654.148-7.461-3.137.717-2.004 1.131-2.632 3.361-2.654 3.884-.038 11.145 1.136 15.013 1.771Z"/>
  <path fill="#ABD27A" d="M173.471 143.11c1.588-4.117 4.086-8.409 8.625-9.648 2.277-.119 4.587 1.397 3.26 3.972-1.499 2.908-5.495 4.294-8.395 5.188-1.168.31-2.287.402-3.49.488Zm-28.403 40.972c.133-8.475-1.676-22.407-3.187-30.915-.655-3.689-1.666-7.338-2.186-11.045 3.144-1.038 6.039-1.988 8.872-3.735 5.318 4.769 9.89 8.147 16.968 9.842-4.01 12.697-8.708 25.185-9.727 38.611-3.508-.382-7.069-2.248-10.74-2.758Zm74.335-24.71c3.939-2.045 13.384 3.802 14.806 7.145-3.175-.666-11.218-5.575-14.806-7.145Zm-139.2819.751c-2.4229.664-13.8598 6.125-15.7529 7.471.7089-4.702 11.2365-10.379 15.7529-7.471Z"/>
  <path fill="#253017" d="M232.934 172.128c-3.266-1.095-6.239-2.912-9.327-4.409-2.382-1.154-8.187-2.691-6.439-6.511.48-1.047 1.186-1.468 2.235-1.836 3.588 1.57 11.631 6.479 14.806 7.145 2.471 2.15 1.849 4.966-1.275 5.611Zm-168.5659-4.534c1.8931-1.346 13.33-6.807 15.7529-7.471 10.6559 3.028-11.8629 11.379-13.7256 12.005-2.0543-1.149-2.9238-2.192-2.0273-4.534Z"/>
  <path fill="#ABD27A" d="M172.057 193.941c2.809-9.756 11.018-20.784 19.658-26.347-1.065 2.16-4.486 5.487-6.152 7.585-3.738 4.707-6.895 9.786-9.436 15.23-1.244.824-1.998 2.899-2.656 4.196-.812.388-.945-.002-1.414-.664Z"/>
  <path fill="#ABD27A" d="M173.471 194.605c-.659 1.377-1.142 2.811-1.742 4.212l.057.166-.092-.002-.08.173-.146-.141c-.177-1.678.283-3.427.589-5.072.469.662.602 1.052 1.414.664Zm-15.678 30.469c2.157-1.193 5.337-1.087 7.742-1.668 3.81-.92 7.108-2.324 10.592-4.104 6.91 9.034-18.497 11.528-22.512 11.367.873-.952 2.975-1.418 4.178-1.908-.994-.048-1.962-.047-2.955 0-.633-.098-.682-.482-.854-1.033 1.189-.736 2.205-1.767 3.526-2.287l-.099.12.18-.406.182.006.064-.085-.001.09-.057.02.014-.112Z"/>
  <path fill="#ABD27A" d="M150.871 229.735c.968-.924 1.897-1.471 3.113-2.007.172.551.221.935.854 1.033-.852.381-1.124.612-1.516 1.462l-2.451-.488Z"/>
  <path fill="#DEEBC5" d="M154.838 228.761c.993-.047 1.961-.048 2.955 0-1.203.491-3.305.956-4.178 1.908l-.293-.446c.392-.85.664-1.081 1.516-1.462Z"/>
  <path fill="#ABD27A" d="M157.793 235.417c6.688-.111 13.087-1.778 19.168-4.493 2.492 10.049-18.388 10.356-24.806 10.919.38-1.903 2.601-1.729 4.042-2.381.904-.305 1.779-.688 2.562-1.236-1.417.256-2.759.838-4.144 1.236-1.055-.144-2.027-.099-3.08 0 2.338-1.861 5.007-2.373 6.989-3.865l-.062-.102-.669-.078Z"/>
  <path fill="#DEEBC5" d="M154.615 239.462c1.384-.398 2.727-.98 4.144-1.236-.783.548-1.658.931-2.562 1.236-.461-.185-1.09-.048-1.582 0Z"/>
  <path fill="#ABD27A" d="M157.793 246.639c6.188-.472 11.563-1.829 17.386-3.88-1.901 8.029-15.184 10.051-21.857 9.904-1.785.174-3.752.391-5.519 0l4.882-1.021h.637c1.456-.708 2.929-1.201 4.471-1.683h-1.985c-1.043.014-1.38-.539-1.193-1.52 1.058-.601 2.14-1.164 3.178-1.8Z"/>
  <path fill="#ABD27A" d="M150.871 251.078c.204-1.252 2.73-2.127 3.744-2.639-.186.981.15 1.534 1.193 1.52-1.618.393-3.355.653-4.937 1.119Z"/>
  <path fill="#DEEBC5" d="M155.808 249.958h1.985c-1.542.483-3.015.975-4.471 1.683h-.637c-.557-.376-1.167-.444-1.814-.563 1.582-.466 3.319-.726 4.937-1.12Z"/>
</svg>
