<svg xmlns="http://www.w3.org/2000/svg" width="24" height="24" fill="none">
  <path fill="#253017" d="M12 22C6.48372 22 2 17.5163 2 12 2 6.48372 6.48372 2 12 2c5.5163 0 10 4.48372 10 10 0 5.5163-4.4837 10-10 10Zm0-18.60465c-4.74419 0-8.60465 3.86046-8.60465 8.60465 0 4.7442 3.86046 8.6047 8.60465 8.6047 4.7442 0 8.6047-3.8605 8.6047-8.6047 0-4.74419-3.8605-8.60465-8.6047-8.60465Z"/>
  <path fill="#253017" d="M15.7211 12.6977H8.27922c-.3814 0-.69768-.3163-.69768-.6977 0-.3814.31628-.6977.69768-.6977h7.44188c.3814 0 .6977.3163.6977.6977 0 .3814-.3163.6977-.6977.6977Z"/>
  <path fill="#253017" d="M11.9999 16.4186c-.3814 0-.6977-.3163-.6977-.6977V8.27906c0-.38139.3163-.69767.6977-.69767.3814 0 .6977.31628.6977.69767v7.44184c0 .3814-.3163.6977-.6977.6977Z"/>
</svg>
