<svg xmlns="http://www.w3.org/2000/svg" width="24" height="24" fill="none">
  <path fill="#253017" d="M16.6512 20.2093H7.34884C3.95349 20.2093 2 18.2558 2 14.8605V8.34884C2 4.95349 3.95349 3 7.34884 3h9.30236C20.0465 3 22 4.95349 22 8.34884v6.51166c0 3.3953-1.9535 5.3488-5.3488 5.3488ZM7.34884 4.39535c-2.66047 0-3.95349 1.29302-3.95349 3.95349v6.51166c0 2.6604 1.29302 3.9535 3.95349 3.9535h9.30236c2.6604 0 3.9535-1.2931 3.9535-3.9535V8.34884c0-2.66047-1.2931-3.95349-3.9535-3.95349H7.34884Z"/>
  <path fill="#253017" d="M11.9998 12.4139c-.7814 0-1.5721-.2418-2.17675-.7348L6.91142 9.35347c-.29767-.24186-.35348-.67907-.11162-.97674.24186-.29768.67907-.35349.97674-.11163l2.91166 2.3256c.7069.5674 1.9069.5674 2.6139 0l2.9116-2.3256c.2977-.24186.7442-.19535.9768.11163.2419.29767.1953.74419-.1116.97674l-2.9117 2.32563c-.5953.493-1.386.7348-2.1674.7348Z"/>
</svg>
