<svg xmlns="http://www.w3.org/2000/svg" width="300" height="300" fill="none">
  <path fill="#253017" d="M53.2123 56.0335c3.6839-.1946 7.355-.6144 11.0318-.9187 37.6009-3.113 76.9619-4.6171 114.7599-4.5782l59.623-.0073c10.145.0009 12.7-1.9492 12.369 9.6442l-2.169 99.0935c-.122 5.618.066 11.226-.212 16.843-.27 5.464-9.281 3.217-12.623 3.097l-28.832-.941c-3.644-.095-8.389-.658-11.921-.212l-.231.031c-.504 3.175.243 6.165.243 9.343.001 11.467-9.494 9.406-17.538 8.988-2.652-.137-5.313-.194-7.967-.28 7.501 15.811 17.639 30.389 24.857 46.817 1.253 2.853.428 4.672-2.518 5.741-3.939-.28-4.033-3.244-5.387-6.282-3.376-7.576-7.621-14.699-11.545-21.992l-12.883-24.284h-9.625c-.12 5.306.362 10.665.64 15.963l1.004 21.451c.187 3.782.767 7.814.588 11.583-.19 3.997-6.654 4.452-7.285.417-.645-4.128-.359-13.891-.389-18.344.032-2.358-.128-4.74-.196-7.099l-.401-15.028c-.093-2.981-.281-5.959-.26-8.943-1.419.257-2.871.402-4.301.588-2.16 3-3.722 7.07-5.34 10.425-4.469 9.265-8.83 18.565-13.427 27.77l-3.54 7.065c-1.425 2.832-2.929 7.393-7.043 5.627-4.274-1.835-.147-7.427 1.137-9.649 7.533-13.04 13.781-27.668 20.451-41.238-6.605-.372-17.748 1.703-22.805-3.16-4.115-3.958-3.035-10.385-3.219-15.479-11.2399-.435-44.4585 2.711-49.5479.695-2.9736-1.177-2.7614-5.864-3.0372-8.461l-1.0755-10.726c-3.0579-29.149-5.2876-60.5684-5.2244-89.7228.008-3.6786.8729-8.6057-.6982-11.9859 1.726-1.6731 1.7777-3.956 4.5365-1.8508ZM182.875 177.701c-19.375-.395-38.355-.733-57.78-.056-1.602.056-3.343-.122-4.924.056-1.772.084-3.59.065-5.338.384-.198 5.865-1.17 11.151 5.338 11.446 2.974.759 21.978-.186 25.63-.348 12.367-.547 24.712.418 37.074.348 9.297.127 4.911-1.186 5.063-11.83-1.688.108-3.375.1-5.063 0Zm12.133-120.4256c-3.078.2604-6.051.2049-9.13.2304l-11.19.1314c-1.262.0077-2.527-.0763-3.788-.0342l-30.128.7606c-19.619.5478-39.297 1.2919-58.8777 2.6442l-17.3848 1.1338c-2.7082.2004-5.6209.2022-8.2584.8608-.2207 3.484.0159 7.0347.0957 10.524.7466 32.6216 2.959 66.5376 6.5748 99.0466 2.7141-.149 5.4322-.144 8.1481-.26l19.7707-.825c4.224-.142 11.1316-.031 15.0196-.831 7.08.052 14.118-.219 21.195-.299 38.341-.431 76.594.987 114.909 2.215.343-4.453.137-8.945.26-13.408l1.875-92.357c.05-3.0439.287-6.2056.016-9.2397-6.44-.5492-13.032-.2983-19.493-.2946l-29.614.0017Z"/>
  <path fill="#ABD27A" d="M145.835 64.0417c8.206.01 16.049-.5021 24.14-.597l60.608-.443h7.6c.002 6.8731.117 13.7678-.016 20.6385l-1.63 69.8458c-.143 4.315-.763 8.608-.359 12.924-6.986.736-17.67-.236-24.764-.591-10.965-.548-21.973-.322-32.926-1.075-7.385-.507-28.224.441-31.255-.592l-.03-.289c.362-.68.846-1.299 1.297-1.92 8.487-11.685 9.473-33.339 7.962-47.873-1.422-13.668-4.916-27.0958-8.36-40.3726-.829-3.1951-1.747-6.3932-2.267-9.6557Zm68.763 14.7563c-3.704.2004-7.498-.0035-11.211-.0041l-23.393.0059c-3.089 0-12.859-1.4198-12.408 2.5031.21 1.8258 1.866 2.492 3.467 2.7041.115 1.3371-.241 2.8599 1.377 3.1406-1.478 5.6871-1.129 12.0604-1.438 17.9184-.394 7.491-.786 13.667-.818 21.269-.021 4.767-.953 12.735 4.145 15.365 6.368 6.752 28.814 1.969 38.482 2.676 10.799.788 9.716.918 9.675-11.679-.039-12.041-.662-24.078-.767-36.1193-.076-8.8125.796-22.4402-12.799-19.3067 1.979.2192 3.875.6914 5.688 1.527Z"/>
  <path fill="#253017" d="M214.598 78.798c-1.813-.8355-3.709-1.3078-5.688-1.5269 13.595-3.1336 12.723 10.4941 12.799 19.3066.105 12.0413.728 24.0783.767 36.1193.041 12.597 1.124 12.467-9.675 11.679-9.668-.706-32.114 4.077-38.482-2.676-1.883-4.496-1.313-8.986-1.329-13.747l.095-15.746c.041-5.002.803-23.7346-.291-25.1033l-.364.0439c-1.618-.2806-1.262-1.8035-1.377-3.1406-.05-3.7611 1.622-5.7973 2.35-.7928 8.667-.4043 18.84-.3726 27.657-.4898 4.173.6164 11.703-.5092 16.46-.3434-.26-.6486-.533-1.2603-.865-1.8767-.652-.6422-1.309-1.1801-2.057-1.7063Zm-20.633 8.6701-10.285-.392c-2.032-.0796-4.101-.2431-6.133-.191-.015.6557-.094 1.3782 0 2.0256 1.456 10.6207 1.289 21.4793 1.285 32.1793l-.005 8.126c-.002 1.968-.089 4.042.177 5.997.096.858.15 2.634.947 3.154 2.604 1.698 21.93-.569 28.052-.62 2.884-.054 5.775.049 8.652.237-.066-1.042-.051-2.054 0-3.097l.076-25.637c-.034-6.371.042-12.6594.21-19.0198.07-1.0992.003-2.2412 0-3.3451-7.37-.1699-15.385.5948-22.976.583Z"/>
  <path fill="#ABD27A" d="M216.655 80.5039c.332.6164.605 1.2281.865 1.8768-4.757-.1659-12.287.9597-16.459.3433 3.814-1.1513 11.511-1.824 15.594-2.2201Zm-22.69 6.9651c7.591.0117 15.606-.7529 22.976-.583.003 1.1039.071 2.2459 0 3.3451-2.072 3.7008-3.772 26.0589-3.21 32.6119.138 1.596 1.761 11.314 2.819 12.026l.105.019c-.051 1.043-.065 2.055 0 3.097-2.877-.188-5.768-.291-8.652-.237-3.221-2.176-24.063-2.568-28.999-2.534-.266-1.955-.179-4.029-.177-5.998l.005-8.125c.004-10.7.171-21.5587-1.285-32.1794 4.09-.0358 12.691-.1412 16.418-1.4426Z"/>
  <path fill="#253017" d="M108.728 96.8973c-10.918.0059-22.2043.5947-32.934.491-1.6523-.0158-5.3349-2.4685-3.6996-4.2691 1.7537-1.9313 33.0296-2.9871 37.6226-2.8899 7.982-.5806 19.118-.0843 27.101.228 3.883.1523 6.688-.9815 9.017 2.7492-.075 5.7187-4.769 4.5955-8.76 4.4127l-8.608-.368c-6.582-.2953-13.153-.3369-19.739-.3539Zm-3.443 20.1327c-6.4311-.302-13.1911.319-19.6077.78-3.3281.24-8.1257 1.608-10.9951-.741-.7412-.607-1.3998-1.923-.5842-2.734 2.277-2.266 33.693-3.952 41.203-4.305 7.417-.062 14.838-.052 22.249.264 3.079.131 9.204-.79 9.372 3.816.194 5.306-5.918 4.095-9.216 3.865-10.796-.755-21.6-.982-32.421-.945Zm-11.1191 20.955c-3.1676 1.133-16.2334 3.588-16.9963-2.128-.3316-2.486 8.6361-2.446 10.309-2.626 11.8324-1.273 22.8114-1.571 34.4634-2.41 4.834-.034 9.792-.192 14.616.09 3.467.202 4.736 4.575 1.969 6.709-1.528 1.177-19.849.349-23.246.355l-13.256.022c-2.6155.028-5.254.305-7.8591-.012Z"/>
  <path fill="#ABD27A" d="M120.17 177.701c1.582-.178 3.323 0 4.925-.057 19.425-.676 38.404-.338 57.779.057 1.059 4.186 1.285 7.64 0 11.83-12.362.07-24.707-.895-37.073-.348-3.653.162-22.656 1.107-25.631.348-2.516-3.231-1.17-8.32 0-11.83Z"/>
</svg>
