<svg xmlns="http://www.w3.org/2000/svg" width="24" height="24" fill="none">
  <path fill="#253017" d="M11.5349 21.0698C6.27908 21.0698 2 16.7907 2 11.5349 2 6.27908 6.27908 2 11.5349 2c5.2558 0 9.5349 4.27908 9.5349 9.5349 0 5.2558-4.2791 9.5349-9.5349 9.5349Zm0-17.67445c-4.49303 0-8.13955 3.65583-8.13955 8.13955 0 4.4837 3.64652 8.1396 8.13955 8.1396 4.493 0 8.1396-3.6559 8.1396-8.1396 0-4.48372-3.6466-8.13955-8.1396-8.13955ZM21.3024 22c-.1767 0-.3535-.0651-.493-.2046l-1.8605-1.8605c-.2698-.2698-.2698-.7163 0-.9861.2698-.2697.7163-.2697.9861 0l1.8604 1.8605c.2698.2698.2698.7163 0 .9861-.1395.1395-.3163.2046-.493.2046Z"/>
</svg>
