<svg xmlns="http://www.w3.org/2000/svg" fill="none">
  <path stroke="#253017" stroke-linejoin="round" stroke-width="1.5" d="M17.5 8c.663 0 1.2989-.26339 1.7678-.73223C19.7366 6.79893 20 6.16304 20 5.5c0-.66304-.2634-1.29893-.7322-1.76777C18.7989 3.26339 18.163 3 17.5 3s-1.2989.26339-1.7678.73223C15.2634 4.20107 15 4.83696 15 5.5c0 .66304.2634 1.29893.7322 1.76777C16.2011 7.73661 16.837 8 17.5 8Zm-11 6.5c.66304 0 1.29893-.2634 1.76777-.7322C8.73661 13.2989 9 12.663 9 12s-.26339-1.2989-.73223-1.7678C7.79893 9.76339 7.16304 9.5 6.5 9.5c-.66304 0-1.29893.26339-1.76777.7322C4.26339 10.7011 4 11.337 4 12s.26339 1.2989.73223 1.7678c.46884.4688 1.10473.7322 1.76777.7322Z"/>
  <path stroke="#253017" stroke-linecap="round" stroke-linejoin="round" stroke-width="1.5" d="M14.9999 6.78751 8.66993 10.6225m-.0005 2.6595 6.66997 3.9415"/>
  <path stroke="#253017" stroke-linejoin="round" stroke-width="1.5" d="M17.5 16c.663 0 1.2989.2634 1.7678.7322.4688.4689.7322 1.1048.7322 1.7678s-.2634 1.2989-.7322 1.7678C18.7989 20.7366 18.163 21 17.5 21s-1.2989-.2634-1.7678-.7322C15.2634 19.7989 15 19.163 15 18.5s.2634-1.2989.7322-1.7678C16.2011 16.2634 16.837 16 17.5 16Z"/>
</svg>
