<svg xmlns="http://www.w3.org/2000/svg" fill="none" viewBox="0 0 24 24">
  <path d="M12.0184 18.6211c-3.64295 0-6.60287-2.9599-6.60287-6.6029 0-3.64297 2.95992-6.6029 6.60287-6.6029 3.643 0 6.603 2.95993 6.603 6.6029 0 3.643-2.96 6.6029-6.603 6.6029Zm0-11.83968c-2.88703 0-5.23675 2.34973-5.23675 5.23678 0 2.8871 2.34972 5.2368 5.23675 5.2368 2.8871 0 5.2368-2.3497 5.2368-5.2368 0-2.88705-2.3497-5.23678-5.2368-5.23678ZM12.0182 22c-.5009 0-.9107-.3734-.9107-.8743v-.0729c0-.5009.4098-.9107.9107-.9107.5009 0 .9108.4098.9108.9107 0 .5009-.4099.9472-.9108.9472Zm6.5027-2.5683c-.2367 0-.4644-.0911-.6466-.2641l-.1184-.1184c-.3552-.3552-.3552-.929 0-1.2842.3552-.3552.929-.3552 1.2842 0l.1184.1184c.3552.3552.3552.929 0 1.2842-.1731.173-.4008.2641-.6376.2641Zm-13.00542 0c-.23679 0-.46448-.0911-.64663-.2641-.35519-.3552-.35519-.929 0-1.2842l.1184-.1184c.35519-.3552.92896-.3552 1.28415 0 .35519.3552.35519.929 0 1.2842l-.11839.1184c-.17305.173-.40984.2641-.63753.2641ZM21.1257 12.929h-.0729c-.5009 0-.9107-.4099-.9107-.9108 0-.5009.4098-.9107.9107-.9107.5009 0 .9472.4098.9472.9107 0 .5009-.3734.9108-.8743.9108Zm-18.14209 0h-.07286C2.40984 12.929 2 12.5191 2 12.0182c0-.5009.40984-.9107.91075-.9107s.94717.4098.94717.9107c0 .5009-.3734.9108-.87431.9108ZM18.4026 6.54463c-.2368 0-.4645-.09108-.6467-.26412-.3552-.35519-.3552-.92896 0-1.28415l.1184-.1184c.3552-.35519.929-.35519 1.2842 0 .3552.35519.3552.92896 0 1.28415l-.1184.1184c-.1731.17304-.4008.26412-.6375.26412Zm-12.76872 0c-.23679 0-.46448-.09108-.64663-.26412l-.1184-.1275c-.35519-.3552-.35519-.92897 0-1.28416s.92896-.35519 1.28416 0l.11839.1184c.35519.35519.35519.92896 0 1.28415-.17304.18215-.40983.27323-.63752.27323Zm6.38432-2.68671c-.5009 0-.9107-.3734-.9107-.87431v-.07286c0-.50091.4098-.91075.9107-.91075.5009 0 .9108.40984.9108.91075s-.4099.94717-.9108.94717Z"/>
</svg>
