<svg xmlns="http://www.w3.org/2000/svg" width="300" height="300" fill="none">
  <path fill="#253017" d="M194.348 127.751c1.613-6.755 7.91-16.097 8.714-23.002-3.419-2.286-6.24-.807-9.538-6.7076-3.771-6.7465-9.261-36.0692-3.893-42.8733 7.283-9.2336 43.014-14.1042 55.29-15.4702 20.998-1.8096 22.796 26.4292 22.405 41.5148-.195 7.5398-1.703 13.8967-8.562 17.9168-6.273 3.6765-18.236 5.8075-25.491 6.4105-11.335.941-7.213-1.411-15.467 6.272l-18.3 17.143c-2.21 2.103-4.291 1.691-5.158-1.204Zm50.573-83.1332c-9.285.4319-45.132 6.1714-51.325 12.9985-4.459 4.9155 1.392 36.8321 5.913 40.5886 3.472 2.8831 9.671.0773 10.069 3.3101.16 1.298-3.691 9.73-4.468 11.644l-.826 2.083 10.505-10.086c7.264-6.9423 4.534-5.5068 14.495-6.3787 6.711-.5877 19.476-2.6414 25.216-6.1605 5.374-3.2948 5.261-9.0914 5.359-14.7774.119-6.9105-1.146-25.8032-6.03-30.8428-2.241-2.3132-5.824-2.8118-8.908-2.3788Z"/>
  <path fill="#253017" d="M113.668 64.0102c5.319-10.246 17.101-15.9589 28.322-16.6134 1.22-.1073 2.459-.0301 3.679.0466 23.971 1.5065 41.936 19.5539 40.273 44.0356-.498 7.3171-3.465 19.513-9.312 24.596-3.077 11.467-4.502 19.533-11.175 30.343-1.912 3.097-4.395 5.764-6.324 8.817l-.146.233c2.165 9.122 6.377 8.874 14.55 11.81 10.063 3.614 28.107 9.884 34.16 17.428 5.399 6.729 9.52 31.148 10.361 40.224.724 7.81 1.306 18.004-5.563 23.388-13.813 10.827-81.048 12.892-104.206 9.96-11.2463-1.244-22.6375-3.58-33.4715-6.822-5.1181-1.532-7.9482-1.533-10.0435-7.047-4.3488-11.445.4008-45.04 6.0439-57.467 4.5364-9.99 32.9761-17.81 43.1761-21.611 3.622-1.349 5.804-2.999 7.427-6.551-9.436-7.711-15.485-23.1-17.245-35.151-.209-1.435-.316-2.887-.802-4.264-4.4504-2.872-7.8494-8.492-10.0127-13.241-7.2639-15.9493-1.7988-31.5277 14.2027-38.7669-7.036-1.1731-12.1472-.634-18.0154 3.2789-4.7127 3.1424-7.1701-2.0285.0785-5.9092 7.3541-3.9369 16.3539-3.0521 24.0429-.7166Zm57.814 4.074c-17.755-24.6893-62.267-11.4051-50.967 7.0694 2.276 6.0673 8.592 9.8666 14.029 12.7148 10.325 3.8285 17.692 3.818 28.509 3.8039-.726-.9767-1.504-2.1158-2.64-2.6502-3.596-2.7293-14.823-3.184-11.333-7.8504 1.267-1.6939 4.35-.8355 6.043-.4974 7.45 1.4877 13.395 5.2769 16.859 12.0978 2.056 3.8086 2.763 7.9569 3.388 12.1809 1.432-4.93 4.025-13.8719 3.215-18.8828-.06-5.4041-3.413-14.0092-7.103-17.986Zm-55.041 11.7276c-1.557-3.3557-2.71-6.8848-3.316-10.541-19.3022 8.513-22.2753 22.3324-11.851 40.4152.44 1.417 1.372 2.821 2.098 4.117-.032-2.922-.393-13.329 1.55-15.216 2.243-2.178 3.728.5824 3.365 3.392-.186 1.257-.051 2.66 0 3.929 7.294-3.536 12.835-8.9001 16.742-16.0099l-1.059-.876c-3.024-2.8394-5.304-5.7258-7.529-9.2103Zm51.726 93.8922c-.914-.378-1.853-.836-2.798-1.117-13.599 29.714-16.979 47.514-20.396 79.75 1.615-.163 3.283-.253 4.882-.513 9.839-.379 20.679-1.562 30.46-3.146l.009-23.703c.001-2.613-.377-9.975.263-11.975 1.188-3.713 5.627-2.545 6.77.499.648 9.991.813 23.554.294 33.738.877-.004 1.755-.018 2.631 0 5.554-1.779 16.716-1.995 19-8.127 3.951-10.606-1.633-37.123-5.888-46.429-4.379-9.578-25.84-15.491-35.227-18.977Zm-52.244 4.104c-.483-1.613-.978-3.222-1.732-4.734-7.495 2.666-33.2917 10.422-36.4891 17.187-5.0321 10.648-8.8553 40.102-6.1641 50.01.1576.866.4324 1.664.7986 2.462 3.675 1.745 13.145 3.902 17.0262 4.504.3199-8.98-.8783-19.227-.9111-28.484-.0088-2.315-.7354-5.687.6205-7.752 2.1732-3.31 6.4646-1.557 6.924 2.498.1828 7.136.2508 14.287.5994 21.417l.5514 9.721c.0738 1.549.2203 3.141.1459 4.689.6744-.001 1.3564-.025 2.0297 0 11.7336 2.617 27.7436 3.025 39.6326 3.011-1.795-18.66-9.527-47.392-17.686-63.288-1.868-3.64-4.022-7.158-5.293-11.073l-.053-.168Zm12.661-85.0359c-5.87 11.1179-9.567 13.0739-21.022 17.6349 1.5 14.782 7.13 33.007 19.028 42.726 5.749 4.696 13.461 6.289 19.979 2.335 14.775-9.588 26.992-38.665 19.971-56.5002-10.241 1.3292-22.402.7934-31.956-2.9842-2.147-.8478-3.933-2.3097-6-3.2115Zm23.692 68.3369c-6.753 4.128-16.558 6.142-23.692 1.79-3.69 4.246-3.866 4.59-8.069 8.328 2.088 4.309 6.002 7.599 10.064 9.989 11.548 6.094 21.487 5.472 27.726-6.734.673-1.315 1.278-2.764 2.108-3.981-2.353-1.542-4.971-3.368-6.363-5.899-.4-.726-1.168-3.296-1.774-3.493Zm-26.778 26.211c7.119 14.774 13.315 33.77 16.007 50.171 1.098-3.702 1.324-7.577 2.053-11.35 2.049-12.307 5.431-23.954 9.442-35.72-11.201 4.592-17.964.789-27.502-3.101Zm83.12-117.4439c-1.743 1.3576-6.232 5.9285-7.077 1.0764-.359-2.0649 2.927-3.5936 4.282-4.541 8.573-5.9942 17.531-8.4128 27.777-9.7212 2.311-.1871 11.559-.9472 9.514 3.802-.898 2.0871-4.38 1.0559-6.041 1.0277-7.629-.1277-15.693 1.977-22.499 5.2729-1.988.9621-3.892 2.3432-5.956 3.0832Z"/>
  <path fill="#ABD27A" d="M120.515 75.1532c3.324-18.76 34.253-19.6102 47.499-9.6838 1.171.8777 2.089 2.0355 3.468 2.6144 3.69 3.9768 7.043 12.5819 7.103 17.986-.084 2.8758-4.225 4.9793-6.603 6.7019-3.464-6.8209-9.409-10.6101-16.859-12.0978-1.693-.3381-4.776-1.1965-6.043.4974-3.49 4.6664 7.737 5.1211 11.333 7.8504-2.598 2.9051-21.826-2.3355-25.869-1.1537-5.437-2.8482-11.753-6.6474-14.029-12.7148Z"/>
  <path fill="#253017" d="M215.691 76.185c-1.483.9228-7.922 7.0564-8.303 1.3406-.131-1.9547 3.374-3.8842 4.708-4.7701 7.008-4.6559 14.37-6.7951 22.659-7.6992 2.278-.1922 12.461-1.091 11.362 3.3802-.726 2.9508-5.873 1.4028-8.01 1.4209-7.864.0651-15.72 2.1932-22.416 6.3276Z"/>
  <path fill="#253017" d="M224.65 81.1569c-1.789.8233-5.32 4.452-7.327 3.0422-7.135-5.0144 14.739-10.4736 17.432-10.8099 2.061-.2584 12.781-.4993 11.13 3.8736-1.085 2.8705-3.746 1.442-6.048 1.166-5.252-.6305-10.404.6451-15.187 2.7281Z"/>
  <path fill="#ABD27A" d="M116.44 79.8125c2.226 3.4846 4.506 6.3709 7.53 9.2103-1.931 1.5252-3.208 3.4594-4.823 5.2805-2.591 2.9215-10.413 9.6297-10.86 7.6767.363-2.8099-1.122-5.5702-3.365-3.3923-1.943 1.8863-1.582 12.2933-1.55 15.2153-.726-1.295-1.659-2.699-2.098-4.116.038-.946-.447-2.241-.619-3.197-2.4021-13.3398 4.917-20.1912 15.785-26.6775Z"/>
  <path fill="#253017" d="M231.9 87.8684c-6.09 3.0633-9.286-3.5391 2.302-5.6467 2.042-.2561 7.653-.3012 5.932 3.416-.88 1.9031-5.388 1.1778-8.234 2.2307Z"/>
  <path fill="#508826" d="M178.585 86.0701c.81 5.0109-1.783 13.9519-3.215 18.8829-.625-4.224-1.333-8.3724-3.388-12.181 2.378-1.7226 6.519-3.8262 6.603-6.7019Zm-44.041 1.7983c4.043-1.1819 23.271 4.0588 25.869 1.1537 1.136.5344 1.914 1.6734 2.64 2.6502-10.817.014-18.184.0246-28.509-3.8039Zm-10.574 1.1531 1.059.876c-3.907 7.1097-9.448 12.4735-16.742 16.0105-.051-1.27-.186-2.673 0-3.93.447 1.954 8.269-4.7546 10.86-7.6761 1.615-1.821 2.892-3.7552 4.823-5.2804Z"/>
  <path fill="#ABD27A" d="M168.167 173.703c9.387 3.487 30.848 9.399 35.227 18.978 4.255 9.306 9.839 35.823 5.888 46.429-2.284 6.131-13.446 6.348-19.001 8.127-.543-5.304.534-17.928.9-23.629.172-2.666.642-5.287.388-7.961-.896-1.702-2.481-1.814-4.213-2.149-1.142-3.043-5.581-4.211-6.77-.498-.639 1.999-.261 9.361-.263 11.974l-.008 23.703c-9.781 1.585-20.621 2.767-30.46 3.146-.267-3.826.531-7.493.956-11.273 2.688-23.918 9.16-44.194 17.356-66.847Zm-96.6294 66.568c.3668-1.432.2355-3.26.3234-4.759.5297-9.003 5.0262-31.258 9.4746-39.704 4.384-8.322 24.7234-14.948 34.5864-17.999l.054.168c1.271 3.914 3.424 7.433 5.293 11.072 8.159 15.896 15.891 44.629 17.685 63.288-11.888.015-27.898-.394-39.6318-3.01l-.0024-23.579c-.0035-3.101.3117-7.146.0024-10.1-.7594-1.773-1.3618-2.125-3.3264-2.149-.4594-4.054-4.7508-5.808-6.924-2.498-1.3559 2.066-.6293 5.438-.6205 7.753.0328 9.257 1.231 19.504.9111 28.483-3.8813-.601-13.3512-2.759-17.0262-4.504-.3662-.798-.641-1.595-.7986-2.462Z"/>
</svg>
