<svg xmlns="http://www.w3.org/2000/svg" width="24" height="24" fill="none">
  <path stroke="#253017" stroke-linecap="round" stroke-linejoin="round" stroke-width="1.5" d="M17.982 18.725c-.6989-.925-1.6029-1.6752-2.6409-2.1914-1.0381-.5163-2.1818-.7845-3.3411-.7836-1.1593-.0009-2.30305.2673-3.34109.7836-1.03804.5162-1.94207 1.2664-2.64092 2.1914m11.96401 0c1.3635-1.2128 2.3261-2.8114 2.7602-4.5839.434-1.7725.3191-3.635-.3297-5.34061s-1.8008-3.1737-3.3031-4.20958c-1.5023-1.03588-3.2841-1.5906-5.1089-1.5906-1.8248 0-3.60658.55472-5.10891 1.5906-1.50233 1.03588-2.65427 2.50397-3.30307 4.20958-.64879 1.70561-.76378 3.56811-.32971 5.34061s1.39568 3.3711 2.75918 4.5839m11.96401 0C16.3358 20.1929 14.2055 21.0028 12 21c-2.20591.003-4.33558-.8069-5.98201-2.275M15 9.75001c0 .79569-.3161 1.55869-.8787 2.12129-.5626.5626-1.3257.8787-2.1213.8787-.7957 0-1.5587-.3161-2.12133-.8787-.56261-.5626-.87868-1.3256-.87868-2.12129 0-.79565.31607-1.55871.87868-2.12132.56263-.56261 1.32563-.87868 2.12133-.87868.7956 0 1.5587.31607 2.1213.87868.5626.56261.8787 1.32567.8787 2.12132Z"/>
</svg>
