<svg xmlns="http://www.w3.org/2000/svg" width="24" height="24" fill="none">
  <path fill="#253017" d="M11.988 12.6977c-2.94884 0-5.34884-2.4-5.34884-5.34886C6.63916 4.4 9.03916 2 11.988 2c2.9488 0 5.3488 2.4 5.3488 5.34884 0 2.94886-2.4 5.34886-5.3488 5.34886Zm0-9.30235c-2.17675 0-3.95349 1.77674-3.95349 3.95349 0 2.17674 1.77674 3.95346 3.95349 3.95346 2.1767 0 3.9535-1.77672 3.9535-3.95346 0-2.17675-1.7768-3.95349-3.9535-3.95349ZM19.9789 22c-.3814 0-.6977-.3163-.6977-.6977 0-3.2093-3.2744-5.8139-7.293-5.8139-4.01863 0-7.29305 2.6046-7.29305 5.8139 0 .3814-.31628.6977-.69767.6977-.3814 0-.69768-.3163-.69768-.6977 0-3.9721 3.89768-7.2093 8.6884-7.2093 4.7907 0 8.6883 3.2372 8.6883 7.2093 0 .3814-.3162.6977-.6976.6977Z"/>
</svg>
